<svg width="400" height="190" viewBox="0 0 400 190" fill="none" xmlns="http://www.w3.org/2000/svg">
<rect opacity="0.45" x="110.978" y="19.8527" width="178.044" height="120.988" rx="11.4681" fill="#29283E" stroke="#5B5A9A" stroke-width="1.06386"/>
<mask id="mask0_10793_21375" style="mask-type:alpha" maskUnits="userSpaceOnUse" x="94" y="23" width="211" height="166">
<rect x="94.1855" y="23.6646" width="210.692" height="164.672" fill="url(#paint0_linear_10793_21375)"/>
</mask>
<g mask="url(#mask0_10793_21375)">
<rect x="104.48" y="31.4927" width="191.041" height="164.22" rx="11.5" fill="#262534"/>
<rect x="104.48" y="31.4927" width="191.041" height="164.22" rx="11.5" stroke="#9894F9"/>
<rect opacity="0.6" x="124.428" y="50.8257" width="69.572" height="15.824" rx="2.14571" fill="#6F69C0"/>
<rect opacity="0.6" x="123.942" y="76.9644" width="104.047" height="15.824" rx="2.14571" fill="#403D65"/>
<circle cx="127.778" cy="115.92" r="3.77803" fill="#363452"/>
<rect opacity="0.6" x="140.314" y="109.789" width="112.686" height="12.2641" rx="3.50327" fill="#403D65"/>
<circle cx="127.778" cy="137.051" r="3.77803" fill="#363452"/>
<rect opacity="0.6" x="140.314" y="130.919" width="83.9232" height="12.2641" rx="3.50327" fill="#403D65"/>
<circle cx="127.778" cy="158.182" r="3.77803" fill="#363452"/>
<rect opacity="0.6" x="140.314" y="152.05" width="41.9862" height="12.2641" rx="3.50327" fill="#403D65"/>
</g>
<g opacity="0.98">
<mask id="path-12-inside-1_10793_21375" fill="white">
<path d="M88.5264 51.106H311.473V104.509H88.5264V51.106Z"/>
</mask>
<path d="M88.5264 51.106H311.473V104.509H88.5264V51.106Z" fill="url(#paint1_linear_10793_21375)" fill-opacity="0.46" style="mix-blend-mode:lighten"/>
<path d="M311.473 104.509V103.509H88.5264V104.509V105.509H311.473V104.509Z" fill="#9894F9" mask="url(#path-12-inside-1_10793_21375)"/>
</g>
<rect x="152.5" y="118.288" width="181.098" height="43.976" rx="5.5" fill="#28273E"/>
<rect x="152.5" y="118.288" width="181.098" height="43.976" rx="5.5" stroke="#9894F9"/>
<path d="M162.669 136.29V129.573H165.188C165.704 129.573 166.136 129.663 166.486 129.842C166.838 130.022 167.104 130.273 167.283 130.596C167.465 130.918 167.555 131.293 167.555 131.721C167.555 132.152 167.464 132.526 167.28 132.843C167.098 133.158 166.831 133.401 166.476 133.574C166.122 133.745 165.687 133.83 165.171 133.83H163.377V132.82H165.007C165.309 132.82 165.556 132.778 165.748 132.695C165.941 132.61 166.083 132.487 166.175 132.325C166.269 132.161 166.316 131.96 166.316 131.721C166.316 131.483 166.269 131.28 166.175 131.111C166.081 130.941 165.938 130.812 165.745 130.724C165.553 130.635 165.305 130.59 165.001 130.59H163.886V136.29H162.669ZM166.139 133.246L167.801 136.29H166.444L164.81 133.246H166.139ZM170.781 136.388C170.276 136.388 169.839 136.283 169.472 136.073C169.107 135.861 168.826 135.562 168.629 135.175C168.433 134.785 168.334 134.327 168.334 133.8C168.334 133.282 168.433 132.828 168.629 132.436C168.828 132.043 169.106 131.737 169.462 131.518C169.819 131.297 170.237 131.187 170.718 131.187C171.029 131.187 171.322 131.237 171.597 131.338C171.875 131.436 172.12 131.589 172.332 131.797C172.546 132.004 172.714 132.269 172.837 132.59C172.959 132.91 173.02 133.29 173.02 133.732V134.096H168.892V133.295H171.883C171.88 133.068 171.831 132.866 171.735 132.689C171.639 132.509 171.504 132.368 171.332 132.266C171.161 132.163 170.962 132.112 170.735 132.112C170.492 132.112 170.279 132.171 170.095 132.289C169.912 132.405 169.768 132.558 169.666 132.748C169.565 132.936 169.514 133.142 169.512 133.368V134.066C169.512 134.359 169.565 134.61 169.672 134.82C169.779 135.028 169.929 135.188 170.121 135.299C170.314 135.408 170.539 135.463 170.797 135.463C170.97 135.463 171.126 135.439 171.266 135.391C171.406 135.341 171.527 135.267 171.63 135.171C171.733 135.075 171.81 134.956 171.863 134.814L172.971 134.938C172.901 135.231 172.768 135.487 172.571 135.706C172.377 135.922 172.127 136.091 171.824 136.211C171.52 136.329 171.172 136.388 170.781 136.388ZM175.474 136.391C175.155 136.391 174.868 136.334 174.612 136.221C174.358 136.105 174.157 135.934 174.008 135.709C173.862 135.484 173.789 135.206 173.789 134.876C173.789 134.592 173.841 134.357 173.946 134.171C174.051 133.985 174.194 133.837 174.376 133.725C174.557 133.614 174.762 133.529 174.989 133.473C175.219 133.414 175.456 133.371 175.701 133.345C175.996 133.314 176.235 133.287 176.419 133.263C176.602 133.236 176.736 133.197 176.819 133.145C176.904 133.09 176.947 133.006 176.947 132.892V132.872C176.947 132.625 176.874 132.434 176.727 132.299C176.581 132.163 176.37 132.095 176.094 132.095C175.803 132.095 175.573 132.159 175.402 132.285C175.234 132.412 175.12 132.562 175.061 132.735L173.953 132.577C174.04 132.271 174.184 132.015 174.386 131.81C174.587 131.602 174.833 131.447 175.123 131.344C175.414 131.239 175.736 131.187 176.088 131.187C176.33 131.187 176.572 131.215 176.812 131.272C177.053 131.329 177.273 131.423 177.471 131.554C177.67 131.683 177.83 131.859 177.95 132.082C178.073 132.305 178.134 132.584 178.134 132.918V136.29H176.993V135.598H176.953C176.881 135.738 176.78 135.869 176.648 135.991C176.519 136.111 176.356 136.209 176.16 136.283C175.965 136.355 175.737 136.391 175.474 136.391ZM175.783 135.519C176.021 135.519 176.227 135.472 176.402 135.378C176.577 135.282 176.712 135.155 176.806 134.997C176.902 134.84 176.95 134.668 176.95 134.483V133.889C176.913 133.92 176.849 133.948 176.76 133.974C176.672 134.001 176.574 134.023 176.465 134.043C176.355 134.063 176.247 134.08 176.14 134.096C176.033 134.111 175.94 134.124 175.861 134.135C175.684 134.159 175.526 134.198 175.386 134.253C175.246 134.308 175.135 134.384 175.055 134.483C174.974 134.579 174.933 134.703 174.933 134.856C174.933 135.075 175.013 135.24 175.173 135.352C175.332 135.463 175.536 135.519 175.783 135.519ZM181.197 136.378C180.801 136.378 180.447 136.276 180.134 136.073C179.822 135.87 179.575 135.575 179.393 135.188C179.212 134.801 179.121 134.331 179.121 133.778C179.121 133.218 179.213 132.746 179.396 132.361C179.582 131.974 179.833 131.682 180.147 131.485C180.462 131.286 180.813 131.187 181.2 131.187C181.495 131.187 181.738 131.237 181.928 131.338C182.118 131.436 182.269 131.555 182.381 131.695C182.492 131.833 182.579 131.963 182.64 132.085H182.689V129.573H183.879V136.29H182.712V135.496H182.64C182.579 135.618 182.49 135.748 182.374 135.886C182.258 136.022 182.105 136.138 181.915 136.234C181.725 136.33 181.485 136.378 181.197 136.378ZM181.528 135.404C181.78 135.404 181.994 135.336 182.171 135.201C182.348 135.063 182.482 134.872 182.574 134.627C182.666 134.382 182.712 134.097 182.712 133.771C182.712 133.445 182.666 133.162 182.574 132.922C182.485 132.681 182.351 132.494 182.174 132.361C181.999 132.227 181.784 132.161 181.528 132.161C181.264 132.161 181.043 132.23 180.866 132.367C180.689 132.505 180.555 132.695 180.466 132.938C180.376 133.181 180.331 133.458 180.331 133.771C180.331 134.086 180.376 134.367 180.466 134.614C180.557 134.859 180.692 135.052 180.869 135.194C181.048 135.334 181.268 135.404 181.528 135.404Z" fill="#998EFA"/>
<path d="M162.669 150.373V143.656H165.188C165.704 143.656 166.136 143.746 166.486 143.925C166.838 144.105 167.104 144.356 167.283 144.68C167.465 145.001 167.555 145.376 167.555 145.804C167.555 146.235 167.464 146.609 167.28 146.926C167.098 147.241 166.831 147.484 166.476 147.657C166.122 147.828 165.687 147.913 165.171 147.913H163.377V146.903H165.007C165.309 146.903 165.556 146.861 165.748 146.778C165.941 146.693 166.083 146.57 166.175 146.408C166.269 146.244 166.316 146.043 166.316 145.804C166.316 145.566 166.269 145.363 166.175 145.194C166.081 145.024 165.938 144.895 165.745 144.807C165.553 144.718 165.305 144.673 165.001 144.673H163.886V150.373H162.669ZM166.139 147.329L167.801 150.373H166.444L164.81 147.329H166.139ZM170.781 150.471C170.276 150.471 169.839 150.366 169.472 150.156C169.107 149.944 168.826 149.645 168.629 149.258C168.433 148.868 168.334 148.41 168.334 147.883C168.334 147.365 168.433 146.911 168.629 146.519C168.828 146.126 169.106 145.82 169.462 145.601C169.819 145.38 170.237 145.27 170.718 145.27C171.029 145.27 171.322 145.32 171.597 145.421C171.875 145.519 172.12 145.672 172.332 145.88C172.546 146.087 172.714 146.352 172.837 146.673C172.959 146.993 173.02 147.373 173.02 147.815V148.179H168.892V147.378H171.883C171.88 147.151 171.831 146.949 171.735 146.772C171.639 146.592 171.504 146.451 171.332 146.349C171.161 146.246 170.962 146.195 170.735 146.195C170.492 146.195 170.279 146.254 170.095 146.372C169.912 146.488 169.768 146.641 169.666 146.831C169.565 147.019 169.514 147.225 169.512 147.451V148.149C169.512 148.442 169.565 148.694 169.672 148.903C169.779 149.111 169.929 149.271 170.121 149.382C170.314 149.491 170.539 149.546 170.797 149.546C170.97 149.546 171.126 149.522 171.266 149.474C171.406 149.424 171.527 149.35 171.63 149.254C171.733 149.158 171.81 149.039 171.863 148.897L172.971 149.021C172.901 149.314 172.768 149.57 172.571 149.789C172.377 150.005 172.127 150.174 171.824 150.294C171.52 150.412 171.172 150.471 170.781 150.471ZM175.474 150.474C175.155 150.474 174.868 150.417 174.612 150.304C174.358 150.188 174.157 150.017 174.008 149.792C173.862 149.567 173.789 149.289 173.789 148.959C173.789 148.675 173.841 148.44 173.946 148.254C174.051 148.068 174.194 147.92 174.376 147.808C174.557 147.697 174.762 147.612 174.989 147.556C175.219 147.497 175.456 147.454 175.701 147.428C175.996 147.397 176.235 147.37 176.419 147.346C176.602 147.319 176.736 147.28 176.819 147.228C176.904 147.173 176.947 147.089 176.947 146.975V146.955C176.947 146.708 176.874 146.517 176.727 146.382C176.581 146.246 176.37 146.178 176.094 146.178C175.803 146.178 175.573 146.242 175.402 146.368C175.234 146.495 175.12 146.645 175.061 146.818L173.953 146.66C174.04 146.354 174.184 146.098 174.386 145.893C174.587 145.685 174.833 145.53 175.123 145.427C175.414 145.322 175.736 145.27 176.088 145.27C176.33 145.27 176.572 145.298 176.812 145.355C177.053 145.412 177.273 145.506 177.471 145.637C177.67 145.766 177.83 145.942 177.95 146.165C178.073 146.388 178.134 146.667 178.134 147.001V150.373H176.993V149.681H176.953C176.881 149.821 176.78 149.952 176.648 150.074C176.519 150.194 176.356 150.292 176.16 150.366C175.965 150.438 175.737 150.474 175.474 150.474ZM175.783 149.602C176.021 149.602 176.227 149.555 176.402 149.461C176.577 149.365 176.712 149.238 176.806 149.08C176.902 148.923 176.95 148.751 176.95 148.566V147.972C176.913 148.003 176.849 148.031 176.76 148.057C176.672 148.084 176.574 148.106 176.465 148.126C176.355 148.146 176.247 148.163 176.14 148.179C176.033 148.194 175.94 148.207 175.861 148.218C175.684 148.242 175.526 148.281 175.386 148.336C175.246 148.391 175.135 148.467 175.055 148.566C174.974 148.662 174.933 148.786 174.933 148.939C174.933 149.158 175.013 149.323 175.173 149.435C175.332 149.546 175.536 149.602 175.783 149.602ZM181.197 150.461C180.801 150.461 180.447 150.359 180.134 150.156C179.822 149.953 179.575 149.658 179.393 149.271C179.212 148.884 179.121 148.414 179.121 147.861C179.121 147.301 179.213 146.829 179.396 146.444C179.582 146.057 179.833 145.765 180.147 145.568C180.462 145.369 180.813 145.27 181.2 145.27C181.495 145.27 181.738 145.32 181.928 145.421C182.118 145.519 182.269 145.638 182.381 145.778C182.492 145.916 182.579 146.046 182.64 146.168H182.689V143.656H183.879V150.373H182.712V149.579H182.64C182.579 149.701 182.49 149.831 182.374 149.969C182.258 150.105 182.105 150.221 181.915 150.317C181.725 150.413 181.485 150.461 181.197 150.461ZM181.528 149.487C181.78 149.487 181.994 149.419 182.171 149.284C182.348 149.146 182.482 148.955 182.574 148.71C182.666 148.465 182.712 148.18 182.712 147.854C182.712 147.528 182.666 147.245 182.574 147.005C182.485 146.764 182.351 146.577 182.174 146.444C181.999 146.31 181.784 146.244 181.528 146.244C181.264 146.244 181.043 146.313 180.866 146.45C180.689 146.588 180.555 146.778 180.466 147.021C180.376 147.264 180.331 147.541 180.331 147.854C180.331 148.169 180.376 148.45 180.466 148.697C180.557 148.942 180.692 149.135 180.869 149.277C181.048 149.417 181.268 149.487 181.528 149.487Z" fill="#998EFA"/>
<rect x="189.312" y="128.306" width="76.6665" height="8.9365" rx="1.09698" fill="#524E88"/>
<rect x="268.199" y="136.065" width="6.14478" height="1.17732" rx="0.588661" fill="#837DD8"/>
<rect x="189.312" y="142.389" width="27.3026" height="8.9365" rx="1.09698" fill="#524E88" fill-opacity="0.54"/>
<path d="M324.112 145.462C324.114 145.687 324.045 145.907 323.916 146.091C323.787 146.275 323.604 146.415 323.392 146.49L319.044 148.071L317.464 152.418C317.386 152.628 317.246 152.809 317.062 152.937C316.878 153.065 316.66 153.133 316.436 153.133C316.212 153.133 315.993 153.065 315.81 152.937C315.626 152.809 315.486 152.628 315.408 152.418L313.827 148.07L309.479 146.49C309.27 146.412 309.089 146.272 308.961 146.088C308.833 145.904 308.764 145.686 308.764 145.462C308.764 145.238 308.833 145.02 308.961 144.836C309.089 144.652 309.27 144.512 309.479 144.434L313.827 142.853L315.408 138.506C315.486 138.296 315.626 138.115 315.81 137.987C315.993 137.859 316.212 137.791 316.436 137.791C316.66 137.791 316.878 137.859 317.062 137.987C317.246 138.115 317.386 138.296 317.464 138.506L319.045 142.853L323.392 144.434C323.604 144.509 323.787 144.649 323.916 144.833C324.045 145.017 324.114 145.237 324.112 145.462Z" fill="#998EFA"/>
<defs>
<linearGradient id="paint0_linear_10793_21375" x1="178.145" y1="188.336" x2="178.145" y2="23.6646" gradientUnits="userSpaceOnUse">
<stop stop-opacity="0"/>
<stop offset="0.380288"/>
</linearGradient>
<linearGradient id="paint1_linear_10793_21375" x1="200" y1="104.509" x2="200" y2="72.8022" gradientUnits="userSpaceOnUse">
<stop stop-color="#5A5789"/>
<stop offset="1" stop-color="#5A5789" stop-opacity="0"/>
</linearGradient>
</defs>
</svg>
